# File produced by Open Asset Import Library (http://www.assimp.sf.net)
# (assimp v3.1.206520482)

mtllib Skyscraper_Base_4.mtl

# 96 vertex positions
v -7.09317 1.41736 7.01877
v -7.1814 1.41736 7.01877
v -7.1814 1.41736 7.11774
v -7.09317 1.41736 7.11774
v -7.1814 1.11331 7.57131
v -7.64581 1.41736 7.57131
v -7.64581 1.41736 7.6624
v -7.1814 1.11331 7.6624
v -7.09317 1.11331 7.57131
v -7.09317 1.11331 7.6624
v -6.14099 1.41736 7.57131
v -6.62886 1.11331 7.57131
v -6.62886 1.11331 7.6624
v -6.14099 1.41736 7.6624
v -7.09317 1.11331 8.12384
v -7.1814 1.11331 8.12384
v -7.1814 1.41736 8.56603
v -7.09317 1.41736 8.56603
v -6.07633 1.41736 7.57131
v -6.07633 1.41736 7.6624
v -6.14099 1.41736 8.0314
v -6.07633 1.41736 8.0314
v -6.44414 -1.57115 7.73586
v -6.73846 -1.57115 7.73586
v -6.73846 -1.57115 7.95847
v -6.44414 -1.57115 7.95847
v -7.01857 -1.57115 7.73586
v -7.0718 -1.57115 7.73586
v -7.0718 -1.57115 7.95847
v -7.01857 -1.57115 7.95847
v -7.35197 -1.57115 7.73586
v -7.35197 -1.57115 7.95847
v -6.14099 1.41736 8.12384
v -6.07633 1.41736 8.12384
v -6.62886 1.11331 8.0314
v -6.62886 1.11331 8.12384
v -7.09317 1.11331 8.0314
v -7.1814 1.11331 8.0314
v -7.64581 1.41736 8.0314
v -7.64581 1.41736 8.12384
v -6.62886 1.41736 7.01877
v -6.69622 1.41736 7.01877
v -6.69622 1.41736 7.11774
v -6.62886 1.41736 7.11774
v -6.69622 1.11331 7.57131
v -6.69622 1.11331 7.6624
v -6.7791 -1.57115 7.73586
v -6.7791 -1.57115 7.95847
v -6.69622 1.11331 8.0314
v -6.69622 1.11331 8.12384
v -6.69622 1.41736 8.56603
v -6.62886 1.41736 8.56603
v -7.01857 -1.57115 7.68091
v -6.7791 -1.57115 7.68091
v -7.01857 -1.57115 8.01424
v -6.7791 -1.57115 8.01424
v -7.01857 -1.57115 8.281
v -6.7791 -1.57115 8.281
v -6.69622 1.41736 8.67637
v -6.62886 1.41736 8.67637
v -7.09317 1.41736 8.67637
v -7.1814 1.41736 8.67637
v -6.7791 -1.57115 7.40728
v -7.01857 -1.57115 7.40728
v -7.73393 1.41736 8.0314
v -7.73393 1.41736 8.12384
v -7.73393 1.41736 7.6624
v -7.73393 1.41736 7.57131
v -7.01857 -1.57115 7.34757
v -7.0718 -1.57115 7.34757
v -7.0718 -1.57115 7.40728
v -7.0718 -1.57115 7.68091
v -7.35197 -1.57115 7.68091
v -6.44414 -1.57115 7.68091
v -6.73846 -1.57115 7.68091
v -7.0718 -1.57115 8.01424
v -7.0718 -1.57115 8.281
v -6.40513 -1.57115 7.68091
v -6.40513 -1.57115 7.73586
v -6.40513 -1.57115 7.95847
v -6.40513 -1.57115 8.01424
v -6.44414 -1.57115 8.01424
v -6.73846 -1.57115 8.01424
v -7.35197 -1.57115 8.01424
v -6.73846 -1.57115 7.34757
v -6.7791 -1.57115 7.34757
v -6.73846 -1.57115 7.40728
v -6.73846 -1.57115 8.281
v -6.73846 -1.57115 8.34757
v -6.7791 -1.57115 8.34757
v -7.01857 -1.57115 8.34757
v -7.0718 -1.57115 8.34757
v -7.40513 -1.57115 8.01424
v -7.40513 -1.57115 7.95847
v -7.40513 -1.57115 7.73586
v -7.40513 -1.57115 7.68091

# 182 UV coordinates
vt 0.951133 0.688948 0
vt 0.942118 0.698422 0
vt 0.9315 0.688339 0
vt 0.940486 0.67888 0
vt 0.873006 0.632105 0
vt 0.814888 0.689165 0
vt 0.805399 0.679575 0
vt 0.863998 0.621988 0
vt 0.88204 0.62326 0
vt 0.873575 0.612376 0
vt 0.991127 0.511204 0
vt 0.931409 0.572316 0
vt 0.922291 0.562996 0
vt 0.981363 0.501847 0
vt 0.823535 0.56457 0
vt 0.813765 0.573212 0
vt 0.758577 0.517328 0
vt 0.767823 0.508136 0
vt 0.997743 0.504292 0
vt 0.987986 0.494945 0
vt 0.941932 0.464054 0
vt 0.948619 0.45718 0
vt 0.951422 0.521447 0
vt 0.911582 0.561447 0
vt 0.880147 0.530137 0
vt 0.919988 0.490138 0
vt 0.873666 0.599515 0
vt 0.86646 0.606749 0
vt 0.835026 0.575439 0
vt 0.842231 0.568205 0
vt 0.828536 0.644825 0
vt 0.797101 0.613516 0
vt 0.932274 0.454352 0
vt 0.938927 0.447543 0
vt 0.881589 0.523962 0
vt 0.872525 0.513665 0
vt 0.833572 0.574615 0
vt 0.822857 0.582723 0
vt 0.765916 0.641645 0
vt 0.756025 0.632113 0
vt 0.998389 0.639209 0
vt 0.991453 0.646302 0
vt 0.980886 0.636139 0
vt 0.98792 0.629087 0
vt 0.923988 0.579001 0
vt 0.914149 0.569141 0
vt 0.906081 0.56697 0
vt 0.874646 0.53566 0
vt 0.874213 0.531372 0
vt 0.865607 0.520266 0
vt 0.808313 0.465477 0
vt 0.815206 0.458231 0
vt 0.881426 0.607244 0
vt 0.913841 0.574699 0
vt 0.834356 0.560361 0
vt 0.866771 0.527816 0
vt 0.796686 0.522842 0
vt 0.829102 0.490297 0
vt 0.796477 0.454248 0
vt 0.803345 0.447002 0
vt 0.756044 0.496762 0
vt 0.746942 0.506015 0
vt 0.95248 0.613184 0
vt 0.920064 0.645729 0
vt 0.756876 0.65103 0
vt 0.746991 0.641516 0
vt 0.796254 0.688922 0
vt 0.805813 0.698423 0
vt 0.132075 0.00718255 0
vt 0.139951 0.00718317 0
vt 0.156135 0.452086 0
vt 0.143079 0.452085 0
vt 0.148692 0.005899 0
vt 0.170624 0.449957 0
vt 0.472192 0.209048 0
vt 0.513209 0.215081 0
vt 0.491853 0.659229 0
vt 0.430381 0.604748 0
vt 0.130113 0.455712 0
vt 0.171262 0.45065 0
vt 0.203692 0.847046 0
vt 0.140965 0.900078 0
vt 0.247507 0.228584 0
vt 0.255579 0.229576 0
vt 0.223234 0.625984 0
vt 0.209855 0.62434 0
vt 0.179079 0.449688 0
vt 0.21665 0.845452 0
vt 0.859837 0.00471824 0
vt 0.903134 0 0
vt 0.930082 0.396989 0
vt 0.863161 0.449504 0
vt 0.687365 0.0181957 0
vt 0.730575 0.0236508 0
vt 0.719684 0.468152 0
vt 0.653682 0.414487 0
vt 0.767963 0.769809 0
vt 0.772726 0.808996 0
vt 0.376278 0.840844 0
vt 0.323735 0.781304 0
vt 0.661936 0.0418064 0
vt 0.656191 0.0808612 0
vt 0.212233 0.0582199 0
vt 0.266235 0 0
vt 0.854099 0.00534326 0
vt 0.853648 0.45054 0
vt 0.894098 0.967007 0
vt 0.894256 0.975138 0
vt 0.449754 1 0
vt 0.449492 0.986523 0
vt 0.893458 0.934072 0
vt 0.448431 0.931929 0
vt 0.763517 0.0236523 0
vt 0.774288 0.468155 0
vt 0.893298 0.925821 0
vt 0.448165 0.918252 0
vt 0.894026 0.920094 0
vt 0.449373 0.90876 0
vt 0.806728 0.0182088 0
vt 0.840305 0.414507 0
vt 0.899523 0.876889 0
vt 0.503084 0.842795 0
vt 0.0482048 0.449691 0
vt 0.0560223 0.450652 0
vt 0.0236292 0.847049 0
vt 0.0106706 0.845456 0
vt 0.773722 0.817189 0
vt 0.377929 0.854424 0
vt 0.0971716 0.455711 0
vt 0.0863608 0.900076 0
vt 0.578102 0.215084 0
vt 0.61912 0.209054 0
vt 0.660896 0.604758 0
vt 0.599419 0.659234 0
vt 0.0906249 0.00717934 0
vt 0.0966384 0.00717981 0
vt 0.0843397 0.45208 0
vt 0.0743719 0.452079 0
vt 0.081884 0.00589383 0
vt 0.0598832 0.449948 0
vt 0.371387 0.229556 0
vt 0.379457 0.228555 0
vt 0.417583 0.624302 0
vt 0.404206 0.625961 0
vt 0.681399 0.0174425 0
vt 0.643793 0.413239 0
vt 0.773719 0.686998 0
vt 0.772717 0.69519 0
vt 0.376256 0.663058 0
vt 0.377916 0.649479 0
vt 0.812695 0.0174572 0
vt 0.850194 0.413262 0
vt 0.767927 0.734373 0
vt 0.323675 0.722565 0
vt 0.656189 0.14968 0
vt 0.661931 0.188735 0
vt 0.266228 0.230517 0
vt 0.212229 0.172294 0
vt 0.295768 0.234512 0
vt 0.331204 0.234539 0
vt 0.34312 0.678852 0
vt 0.28438 0.678806 0
vt 0.654757 0.139934 0
vt 0.209855 0.156138 0
vt 0.654757 0.13392 0
vt 0.209855 0.146171 0
vt 0.654758 0.0984837 0
vt 0.209857 0.0874313 0
vt 0.654758 0.0906073 0
vt 0.209858 0.0743751 0
vt 0.0418243 0 0
vt 0 0.395698 0
vt 0.188753 1.14106e-05 0
vt 0.230516 0.395716 0
vt 0.570319 0.216228 0
vt 0.586518 0.66113 0
vt 0.562066 0.216227 0
vt 0.572838 0.661129 0
vt 0.529125 0.216226 0
vt 0.518234 0.661127 0
vt 0.520993 0.216226 0
vt 0.504754 0.661126 0

# 143 vertex normals
vn 0 1 0
vn 0 0.876115 0.482102
vn 0 0.956574 0.291489
vn 0.281916 0.919763 0.273056
vn 0.482102 0.876115 0
vn 0.317054 0.948407 0
vn 0.482028 0.876156 0
vn 0 0.873166 0.487424
vn -0.482102 0.876115 0
vn -0.314232 0.92047 0.232363
vn -0.480301 0.877104 0
vn -0.349729 0.936851 0
vn 0 0.869264 -0.494349
vn 0.286449 0.918263 -0.273387
vn 0 0.876115 -0.482102
vn 0 0.960469 -0.278388
vn -0.351178 0.936309 0
vn -0.482102 0.876115 0
vn -0.318479 0.919086 -0.232059
vn 0.482028 0.876156 0
vn 0.3187 0.947856 0
vn 0.482102 0.876115 0
vn 0 0.965984 0.258603
vn 0 0.876115 0.482102
vn 0 0.873166 0.487424
vn 0 0.869264 -0.494349
vn 0 0.969505 -0.245072
vn 0 0.876115 -0.482102
vn 0 -0.109362 -0.994002
vn 0 -0.109362 -0.994002
vn 0 -0.109362 -0.994002
vn 0 -0.109362 -0.994002
vn -0.999328 -0.0366493 0
vn -0.999328 -0.0366493 0
vn -0.999328 -0.0366493 0
vn -0.0162351 -0.0397587 -0.999077
vn -0.0162351 -0.0397587 -0.999077
vn -0.0162351 -0.0397587 -0.999077
vn 0.0108875 0.0266627 0.999585
vn 0.0108875 0.0266627 0.999585
vn 0.0108875 0.0266627 0.999585
vn 0.999614 0.0277775 0
vn 0.999614 0.0277775 0
vn 0.999614 0.0277775 0
vn 0 0.0273556 0.999626
vn 0 0.0273556 0.999626
vn 0 0.0273556 0.999626
vn 0.0154426 -0.0397282 -0.999091
vn 0.0154426 -0.0397282 -0.999091
vn 0.0154426 -0.0397282 -0.999091
vn -0.0103559 0.026642 0.999591
vn -0.0103559 0.026642 0.999591
vn -0.0103559 0.026642 0.999591
vn 0.999565 0.0270958 -0.0116205
vn 0.999565 0.0270958 -0.0116205
vn 0.999565 0.0270958 -0.0116205
vn 0.999565 0.0270958 -0.0116205
vn -0.999062 -0.0397903 0.0170647
vn -0.999062 -0.0397903 0.0170647
vn -0.999062 -0.0397903 0.0170647
vn 0 -0.0366496 -0.999328
vn 0 -0.0366496 -0.999328
vn 0.994002 -0.109362 0
vn 0.994002 -0.109362 0
vn 0.994002 -0.109362 0
vn 0.994002 -0.109362 0
vn 0.994002 -0.109362 0
vn -0.994895 0.10092 0
vn -0.994895 0.10092 0
vn -0.994895 0.10092 0
vn 0.994002 -0.109362 0
vn 0.994002 -0.109362 0
vn 0 -0.0366496 0.999328
vn 0 -0.0366496 0.999328
vn -0.0102804 0.0264478 -0.999597
vn -0.0102804 0.0264478 -0.999597
vn -0.0102804 0.0264478 -0.999597
vn -0.0102804 0.0264478 -0.999597
vn 0.0154426 -0.0397282 0.999091
vn 0.0154426 -0.0397282 0.999091
vn 0.0154426 -0.0397282 0.999091
vn 0 0.0271562 -0.999631
vn 0 0.0271562 -0.999631
vn 0.999614 0.0277775 0
vn 0.0108081 0.0264683 -0.999591
vn 0.0108081 0.0264683 -0.999591
vn 0.0108081 0.0264683 -0.999591
vn 0.0108081 0.0264683 -0.999591
vn -0.0162351 -0.0397587 0.999077
vn -0.0162351 -0.0397587 0.999077
vn -0.0162351 -0.0397587 0.999077
vn 0 -0.109362 -0.994002
vn 0.999328 -0.0366493 0
vn 0.999328 -0.0366493 0
vn 0.999328 -0.0366493 0
vn -0.999524 0.0308586 0
vn -0.999524 0.0308586 0
vn -0.999524 0.0308586 0
vn -0.999524 0.0308586 0
vn -0.999524 0.0308586 0
vn -0.999524 0.0308586 0
vn -0.999524 0.0308586 0
vn 0 0.0271562 -0.999631
vn -0.999463 0.030101 -0.0129093
vn -0.999463 0.030101 -0.0129093
vn -0.999463 0.030101 -0.0129093
vn -0.999464 0.030101 -0.0129093
vn 0.999062 -0.0397903 0.0170647
vn 0.999062 -0.0397903 0.0170647
vn 0.999062 -0.0397903 0.0170647
vn 0.999062 -0.0397903 0.0170647
vn 0 0.0964329 0.99534
vn 0 0.0964329 0.99534
vn 0 0.0964329 0.99534
vn 0.999328 -0.0366493 0
vn 0.999328 -0.0366493 0
vn 0 -0.109362 0.994002
vn 0 -0.109362 0.994002
vn 0 -0.109362 0.994002
vn 0 0.0949426 -0.995483
vn 0 0.0949426 -0.995483
vn 0 0.0949426 -0.995483
vn 0 -0.109362 0.994002
vn -0.999328 -0.0366493 0
vn -0.999328 -0.0366493 0
vn 0.99907 -0.0397735 -0.0166295
vn -0.999468 0.0300882 0.01258
vn -0.999468 0.0300882 0.01258
vn 0.999569 0.0270843 0.0113241
vn 0.999569 0.0270843 0.0113241
vn 0.999569 0.0270843 0.0113241
vn -0.99907 -0.0397735 -0.0166295
vn 0 -0.0366496 0.999328
vn 0 -0.0366496 0.999328
vn -0.994002 -0.109362 0
vn -0.994002 -0.109362 0
vn 0.995201 0.0978524 0
vn 0.995201 0.0978524 0
vn 0.995201 0.0978524 0
vn -0.994002 -0.109362 0
vn 0 -0.0366496 -0.999328
vn -0.994002 -0.109362 0
vn -0.994002 -0.109362 0

# Mesh 'pCube36_pCube36' with 162 faces
g pCube36_pCube36
usemtl lambert1
f 1/1/1 2/2/1 3/3/2
f 3/3/2 4/4/3 1/1/1
f 5/5/4 6/6/5 7/7/6
f 7/7/6 8/8/7 5/5/4
f 9/9/8 5/5/4 8/8/7
f 8/8/7 10/10/1 9/9/8
f 11/11/9 12/12/10 13/13/11
f 13/13/11 14/14/12 11/11/9
f 15/15/13 16/16/14 17/17/15
f 17/17/15 18/18/16 15/15/13
f 19/19/1 11/11/9 14/14/12
f 14/14/12 20/20/1 19/19/1
f 20/20/1 14/14/12 21/21/17
f 21/21/17 22/22/1 20/20/1
f 23/23/1 24/24/1 25/25/1
f 25/25/1 26/26/1 23/23/1
f 27/27/1 28/28/1 29/29/1
f 29/29/1 30/30/1 27/27/1
f 28/28/1 31/31/1 32/32/1
f 32/32/1 29/29/1 28/28/1
f 22/22/1 21/21/17 33/33/18
f 33/33/18 34/34/1 22/22/1
f 21/21/17 35/35/11 36/36/19
f 36/36/19 33/33/18 21/21/17
f 37/37/1 38/38/20 16/16/14
f 16/16/14 15/15/13 37/37/1
f 38/38/20 39/39/21 40/40/22
f 40/40/22 16/16/14 38/38/20
f 41/41/1 42/42/1 43/43/23
f 43/43/23 44/44/24 41/41/1
f 45/45/25 46/46/1 13/13/11
f 13/13/11 12/12/10 45/45/25
f 47/47/1 48/48/1 25/25/1
f 25/25/1 24/24/1 47/47/1
f 49/49/1 50/50/26 36/36/19
f 36/36/19 35/35/11 49/49/1
f 50/50/26 51/51/27 52/52/28
f 52/52/28 36/36/19 50/50/26
f 42/42/1 1/1/1 4/4/3
f 4/4/3 43/43/23 42/42/1
f 53/53/1 27/27/1 47/47/1
f 47/47/1 54/54/1 53/53/1
f 27/27/1 30/30/1 48/48/1
f 48/48/1 47/47/1 27/27/1
f 30/30/1 55/55/1 56/56/1
f 56/56/1 48/48/1 30/30/1
f 55/55/1 57/57/1 58/58/1
f 58/58/1 56/56/1 55/55/1
f 51/51/27 59/59/1 60/60/1
f 60/60/1 52/52/28 51/51/27
f 18/18/16 61/61/1 59/59/1
f 59/59/1 51/51/27 18/18/16
f 18/18/16 17/17/15 62/62/1
f 62/62/1 61/61/1 18/18/16
f 44/44/24 43/43/23 45/45/25
f 45/45/25 12/12/10 44/44/24
f 63/63/1 64/64/1 53/53/1
f 53/53/1 54/54/1 63/63/1
f 4/4/3 3/3/2 5/5/4
f 5/5/4 9/9/8 4/4/3
f 39/39/21 65/65/1 66/66/1
f 66/66/1 40/40/22 39/39/21
f 7/7/6 67/67/1 65/65/1
f 65/65/1 39/39/21 7/7/6
f 6/6/5 68/68/1 67/67/1
f 67/67/1 7/7/6 6/6/5
f 69/69/29 70/70/30 2/71/31
f 2/71/31 1/72/32 69/69/29
f 70/70/33 71/73/33 3/74/34
f 3/74/34 2/71/35 70/70/33
f 72/75/36 73/76/37 6/77/38
f 6/77/38 5/78/37 72/75/36
f 31/79/39 28/80/40 8/81/40
f 8/81/40 7/82/41 31/79/39
f 27/83/42 53/84/43 9/85/42
f 9/85/42 10/86/44 27/83/42
f 28/80/45 27/87/46 10/88/47
f 10/88/47 8/81/47 28/80/45
f 74/89/48 75/90/49 12/91/50
f 12/91/50 11/92/49 74/89/48
f 24/93/51 23/94/52 14/95/53
f 14/95/53 13/96/51 24/93/51
f 57/97/54 55/98/55 15/99/56
f 15/99/56 18/100/57 57/97/54
f 76/101/58 77/102/59 17/103/60
f 17/103/60 16/104/60 76/101/58
f 78/105/61 74/89/62 11/92/62
f 11/92/62 19/106/61 78/105/61
f 79/107/63 78/108/64 19/109/65
f 19/109/65 20/110/64 79/107/63
f 80/111/66 79/107/63 20/110/64
f 20/110/64 22/112/67 80/111/66
f 23/94/68 26/113/69 21/114/70
f 21/114/70 14/95/69 23/94/68
f 81/115/71 80/111/66 22/112/67
f 22/112/67 34/116/72 81/115/71
f 82/117/73 81/115/74 34/116/74
f 34/116/74 33/118/73 82/117/73
f 26/113/75 25/119/76 35/120/77
f 35/120/77 21/114/78 26/113/75
f 83/121/79 82/117/80 33/118/79
f 33/118/79 36/122/81 83/121/79
f 30/123/82 29/124/83 38/125/83
f 38/125/83 37/126/83 30/123/82
f 55/98/43 30/127/43 37/128/84
f 37/128/84 15/99/43 55/98/43
f 29/124/85 32/129/86 39/130/87
f 39/130/87 38/125/88 29/124/85
f 84/131/89 76/132/90 16/133/89
f 16/133/89 40/134/91 84/131/89
f 85/135/92 86/136/92 42/137/29
f 42/137/29 41/138/31 85/135/92
f 87/139/93 85/135/93 41/138/94
f 41/138/94 44/140/95 87/139/93
f 54/141/96 47/142/97 46/143/98
f 46/143/98 45/144/98 54/141/96
f 47/145/47 24/93/46 13/96/47
f 13/96/47 46/146/46 47/145/47
f 48/147/99 56/148/100 50/149/101
f 50/149/101 49/150/102 48/147/99
f 25/119/82 48/151/103 49/152/103
f 49/152/103 35/120/103 25/119/82
f 56/148/104 58/153/105 51/154/106
f 51/154/106 50/149/107 56/148/104
f 88/155/108 83/156/109 36/157/110
f 36/157/110 52/158/111 88/155/108
f 86/136/92 69/69/29 1/72/32
f 1/72/32 42/137/29 86/136/92
f 64/159/112 63/160/113 43/161/114
f 43/161/114 4/162/112 64/159/112
f 89/163/115 88/155/116 52/158/95
f 52/158/95 60/164/95 89/163/115
f 90/165/117 89/163/117 60/164/118
f 60/164/118 59/166/119 90/165/117
f 58/153/120 57/97/120 18/100/121
f 18/100/121 51/154/122 58/153/120
f 91/167/118 90/165/117 59/166/119
f 59/166/119 61/168/119 91/167/118
f 92/169/123 91/167/118 61/168/119
f 61/168/119 62/170/118 92/169/123
f 77/102/124 92/169/125 62/170/34
f 62/170/34 17/103/34 77/102/124
f 75/171/126 87/139/126 44/140/126
f 44/140/126 12/172/126 75/171/126
f 63/160/127 54/141/128 45/144/127
f 45/144/127 43/161/127 63/160/127
f 53/84/129 64/159/130 4/162/131
f 4/162/131 9/85/131 53/84/129
f 71/73/132 72/173/132 5/174/132
f 5/174/132 3/74/132 71/73/132
f 93/175/133 84/131/133 40/134/133
f 40/134/133 66/176/134 93/175/133
f 94/177/135 93/175/135 66/176/136
f 66/176/136 65/178/136 94/177/135
f 32/129/137 31/79/138 7/82/139
f 7/82/139 39/130/138 32/129/137
f 95/179/140 94/177/135 65/178/136
f 65/178/136 67/180/135 95/179/140
f 73/76/141 96/181/141 68/182/141
f 68/182/141 6/77/141 73/76/141
f 96/181/142 95/179/140 67/180/135
f 67/180/135 68/182/143 96/181/142

